# xmcd
#
# Track frame offsets:
#	150
#	12948
#	21389
#	32220
#	43261
#	56443
#	71608
#	85628
#	97560
#	111714
#	123006
#	133587
#	143284
#	152701
#
# Disc length: 2179 seconds
#
# Revision: 1
# Processed by: cddbd v1.5.1PL0 Copyright (c) Steve Scherf et al.
# Submitted via: audiograbber 1.82.02
#
DISCID=af08810e
DTITLE=Al Grant - Golden Memories and Silver Tears
DYEAR=2004
DGENRE=Country
TTITLE0=Golden Memories and Silver Tears
TTITLE1=From A Jack To A King
TTITLE2=Am I That Easy To Forget
TTITLE3=How Can I Write On Paper
TTITLE4=I'll Be Faithful To You
TTITLE5=Little Old Dime
TTITLE6=We Could You And I
TTITLE7=Old Love Letters
TTITLE8=This Is It
TTITLE9=Just Call Me Lonesome
TTITLE10=Waltzing On Top Of The World
TTITLE11=I'm Gonna Change Everything
TTITLE12=There's A Heartache Following Me
TTITLE13=Maureen
EXTD=
EXTT0=
EXTT1=
EXTT2=
EXTT3=
EXTT4=
EXTT5=
EXTT6=
EXTT7=
EXTT8=
EXTT9=
EXTT10=
EXTT11=
EXTT12=
EXTT13=
PLAYORDER=
